<svg width="200" height="40" viewBox="0 0 200 40" fill="none" xmlns="http://www.w3.org/2000/svg">
  <g clip-path="url(#clip0_1_26)">
    <path d="M6.04918 30.2378C7.67041 31.3687 10.2989 31.3687 11.9202 30.2378C13.5414 29.107 13.5414 27.2735 11.9202 26.1427C10.2989 25.0118 7.67041 25.0118 6.04918 26.1427C4.42794 27.2735 4.42794 29.107 6.04918 30.2378Z" fill="#B88DFF"/>
    <path d="M22.8761 14.8812C25.308 16.5774 29.2507 16.5774 31.6826 14.8812C34.1144 13.1849 34.1144 10.4347 31.6826 8.7385C29.2507 7.04225 25.308 7.04225 22.8761 8.7385C20.4443 10.4347 20.4443 13.1849 22.8761 14.8812Z" fill="#B88DFF"/>
    <path d="M13.9435 22.5594C15.97 23.9729 19.2557 23.9729 21.2822 22.5594C23.3087 21.1458 23.3087 18.8541 21.2822 17.4405C19.2557 16.027 15.97 16.027 13.9435 17.4405C11.917 18.8541 11.917 21.1458 13.9435 22.5594Z" fill="#B88DFF"/>
    <path d="M0.911942 21.5357C2.12786 22.3838 4.09926 22.3838 5.31519 21.5357C6.53111 20.6876 6.53111 19.3125 5.31519 18.4643C4.09926 17.6162 2.12786 17.6162 0.911942 18.4643C-0.303981 19.3125 -0.30398 20.6876 0.911942 21.5357Z" fill="#B88DFF"/>
    <path d="M13.9435 6.17903C15.97 7.59257 19.2557 7.59257 21.2822 6.17903C23.3087 4.76549 23.3087 2.47369 21.2822 1.06016C19.2557 -0.353385 15.97 -0.353386 13.9435 1.06016C11.917 2.47369 11.917 4.76549 13.9435 6.17903Z" fill="#B88DFF"/>
    <path d="M6.04917 13.8574C7.6704 14.9883 10.2989 14.9883 11.9202 13.8574C13.5414 12.7266 13.5414 10.8931 11.9202 9.76231C10.2989 8.63148 7.6704 8.63148 6.04917 9.76231C4.42794 10.8931 4.42795 12.7266 6.04917 13.8574Z" fill="#B88DFF"/>
    <path d="M13.9435 38.9399C15.97 40.3534 19.2557 40.3534 21.2822 38.9399C23.3087 37.5263 23.3087 35.2345 21.2822 33.821C19.2557 32.4075 15.97 32.4075 13.9435 33.821C11.917 35.2345 11.917 37.5263 13.9435 38.9399Z" fill="#B88DFF"/>
    <path d="M33.5802 23.0714C36.0121 24.7676 39.9549 24.7676 42.3867 23.0714C44.8186 21.3752 44.8186 18.6249 42.3867 16.9287C39.9549 15.2324 36.0121 15.2324 33.5802 16.9287C31.1484 18.6249 31.1484 21.3752 33.5802 23.0714Z" fill="#B88DFF"/>
    <path d="M22.8761 31.2615C25.308 32.9578 29.2507 32.9578 31.6826 31.2615C34.1144 29.5653 34.1144 26.8152 31.6826 25.1188C29.2507 23.4226 25.308 23.4226 22.8761 25.1188C20.4443 26.8152 20.4443 29.5653 22.8761 31.2615Z" fill="#B88DFF"/>
  </g>

  <!-- Larger Text -->
  <text x="55" y="28" font-size="20" fill="white" font-family="Arial, sans-serif">EscapePlane</text>

  <defs>
    <clipPath id="clip0_1_26">
      <rect width="44.2105" height="40" fill="white"/>
    </clipPath>
  </defs>
</svg>
